<svg width="21" height="18" viewBox="0 0 21 18" fill="none" xmlns="http://www.w3.org/2000/svg">
<path d="M19 0.0109192H0V2.01092H2.3L5.58 11.0109C5.78631 11.5945 6.16807 12.0999 6.67294 12.458C7.1778 12.816 7.78106 13.0092 8.4 13.0109H17V11.0109H8.4C8.19449 11.0108 7.99399 10.9474 7.8258 10.8293C7.6576 10.7112 7.52987 10.5442 7.46 10.3509L7 9.01092H16.28C16.714 9.01029 17.1361 8.86849 17.4824 8.60692C17.8288 8.34535 18.0806 7.97821 18.2 7.56092L20 1.28092C20.0406 1.1496 20.0538 1.01132 20.0386 0.874694C20.0234 0.738072 19.9802 0.606049 19.9117 0.48687C19.8432 0.367692 19.7509 0.263917 19.6404 0.182026C19.53 0.100135 19.4039 0.041887 19.27 0.0109192C19.1806 -0.00363973 19.0894 -0.00363973 19 0.0109192ZM16.25 7.01092H6.25L4.43 2.01092H17.67L16.25 7.01092Z" fill="#FFF9F9"/>
<path d="M8.5 17.0109C9.32843 17.0109 10 16.3394 10 15.5109C10 14.6825 9.32843 14.0109 8.5 14.0109C7.67157 14.0109 7 14.6825 7 15.5109C7 16.3394 7.67157 17.0109 8.5 17.0109Z" fill="#FFF9F9"/>
<path d="M14.5 17.0109C15.3284 17.0109 16 16.3394 16 15.5109C16 14.6825 15.3284 14.0109 14.5 14.0109C13.6716 14.0109 13 14.6825 13 15.5109C13 16.3394 13.6716 17.0109 14.5 17.0109Z" fill="#FFF9F9"/>
</svg>
