<svg width="18" height="14" viewBox="0 0 18 14" fill="none" xmlns="http://www.w3.org/2000/svg">
<path fill-rule="evenodd" clip-rule="evenodd" d="M14.7797 1.55556L2.33529 1.55556C1.90573 1.55556 1.55751 1.90378 1.55751 2.33333L1.55751 11.6667C1.55751 12.0962 1.90573 12.4444 2.33529 12.4444L14.7797 12.4444C15.2093 12.4444 15.5575 12.0962 15.5575 11.6667V2.33333C15.5575 1.90378 15.2093 1.55556 14.7797 1.55556ZM2.33529 0C1.04662 0 0.00195313 1.04467 0.00195313 2.33333L0.00195313 11.6667C0.00195313 12.9553 1.04662 14 2.33529 14L14.7797 14C16.0684 14 17.1131 12.9553 17.1131 11.6667V2.33333C17.1131 1.04467 16.0684 0 14.7797 0L2.33529 0Z" fill="#232360"/>
<path fill-rule="evenodd" clip-rule="evenodd" d="M3.29064 3.39084C3.56564 3.06084 4.05608 3.01626 4.38607 3.29125L8.0569 6.35027C8.34533 6.59064 8.7643 6.59064 9.05274 6.35027L12.7236 3.29125C13.0536 3.01626 13.544 3.06084 13.819 3.39084C14.094 3.72083 14.0494 4.21127 13.7194 4.48626L10.0486 7.54528C9.18327 8.26637 7.92636 8.26638 7.06105 7.54529L3.39023 4.48626C3.06023 4.21127 3.01565 3.72083 3.29064 3.39084Z" fill="#232360"/>
</svg>
